<svg xmlns="http://www.w3.org/2000/svg" width="24" height="24" viewBox="0 0 24 24">
    <g fill="none" fill-rule="evenodd">
        <path d="M0 0h24v24H0z"/>
        <path fill="#fff" d="M18.59 16.673c0 .128-.05.256-.141.341l-1.326 1.32a.496.496 0 0 1-.688 0l-4.636-4.6-4.63 4.607a.496.496 0 0 1-.688 0l-1.326-1.32a.477.477 0 0 1-.141-.342c0-.127.049-.255.141-.34l4.648-4.626-4.66-4.565a.486.486 0 0 1 0-.687L6.469 5.14A.485.485 0 0 1 6.813 5c.129 0 .252.049.344.14l4.648 4.546 4.648-4.546a.485.485 0 0 1 .344-.14c.129 0 .252.049.344.14l1.326 1.32c.19.19.19.5 0 .688l-4.66 4.565 4.642 4.62a.477.477 0 0 1 .141.34z"/>
    </g>
</svg>
